<svg xmlns="http://www.w3.org/2000/svg" width="16" height="22"><path d="M13.31 16.5h-5.3a2.523 2.523 0 01-1.88-.79 2.678 2.678 0 01-.77-1.94v-1.93h7.55a2.367 2.367 0 001.76-.75 2.584 2.584 0 000-3.6 2.383 2.383 0 00-1.76-.75H5.36V2.75A2.713 2.713 0 004.57.81 2.521 2.521 0 002.69 0 2.583 2.583 0 00.78.8 2.662 2.662 0 000 2.75v11.03a8.024 8.024 0 002.35 5.81A7.592 7.592 0 008.01 22h5.31a2.558 2.558 0 001.89-.81 2.777 2.777 0 000-3.88 2.564 2.564 0 00-1.9-.81z" fill="#fff" fill-rule="evenodd"/></svg>