<svg xmlns="http://www.w3.org/2000/svg" width="21" height="22"><path data-name="Composite Path" d="M12.49 9.35v1.47h3.54v3.67h1.41v-3.67h3.54V9.35h-3.54V5.68h-1.41v3.67h-3.54zm.95-9.34H7.89a7.043 7.043 0 00-4.83 1.58 5.339 5.339 0 00-1.72 3.87A4.414 4.414 0 005.81 10c.27 0 .57-.03.87-.06a2.6 2.6 0 00-.28 1.12 3.182 3.182 0 00.81 1.97 10.963 10.963 0 00-5.15 1.32 4.239 4.239 0 00-2.08 3.53c0 2.13 1.89 4.13 5.8 4.13 4.64 0 7.1-2.75 7.1-5.46 0-1.99-1.08-2.98-2.27-4.04l-.97-.81a1.6 1.6 0 01-.7-1.24 2.074 2.074 0 01.75-1.42 4.877 4.877 0 00.35-8h1.68zm-2.37 17.66c0 1.79-1.38 3.12-3.96 3.12-2.89 0-4.75-1.47-4.75-3.52a3.173 3.173 0 012.32-2.97 10.013 10.013 0 012.83-.47 3.959 3.959 0 01.62.03c2.05 1.56 2.94 2.34 2.94 3.81zM8.91 8.38a2.675 2.675 0 01-1.83.81c-2.32 0-3.37-3.21-3.37-5.14a3.507 3.507 0 01.59-2.14A2.452 2.452 0 016.19.96c2.24 0 3.4 3.23 3.4 5.31a3.077 3.077 0 01-.68 2.11z" fill="#fff" fill-rule="evenodd"/></svg>